<mxfile host="Electron" modified="2024-02-14T21:10:41.122Z" agent="Mozilla/5.0 (Windows NT 10.0; Win64; x64) AppleWebKit/537.36 (KHTML, like Gecko) draw.io/22.1.2 Chrome/114.0.5735.289 Electron/25.9.4 Safari/537.36" etag="nb5i2GNrayXyvNhK7yF2" version="22.1.2" type="device">
  <diagram name="Page-1" id="F9cLxRZoqnXiT2SBA169">
    <mxGraphModel dx="1036" dy="606" grid="1" gridSize="10" guides="1" tooltips="1" connect="1" arrows="1" fold="1" page="1" pageScale="1" pageWidth="850" pageHeight="1100" math="0" shadow="0">
      <root>
        <mxCell id="0" />
        <mxCell id="1" parent="0" />
        <mxCell id="VBjXd-iiYCMvNj0GaTi1-22" value="accessToken" style="edgeStyle=orthogonalEdgeStyle;rounded=0;orthogonalLoop=1;jettySize=auto;html=1;exitX=1;exitY=0.5;exitDx=0;exitDy=0;entryX=0;entryY=0.5;entryDx=0;entryDy=0;" parent="1" source="VBjXd-iiYCMvNj0GaTi1-23" target="VBjXd-iiYCMvNj0GaTi1-25" edge="1">
          <mxGeometry relative="1" as="geometry" />
        </mxCell>
        <mxCell id="VBjXd-iiYCMvNj0GaTi1-23" value="password&lt;br&gt;change" style="shape=process;whiteSpace=wrap;html=1;backgroundOutline=1;" parent="1" vertex="1">
          <mxGeometry x="80" y="80" width="120" height="60" as="geometry" />
        </mxCell>
        <mxCell id="VBjXd-iiYCMvNj0GaTi1-24" style="edgeStyle=orthogonalEdgeStyle;rounded=0;orthogonalLoop=1;jettySize=auto;html=1;exitX=0.5;exitY=1;exitDx=0;exitDy=0;entryX=0.5;entryY=0;entryDx=0;entryDy=0;" parent="1" source="VBjXd-iiYCMvNj0GaTi1-25" target="VBjXd-iiYCMvNj0GaTi1-30" edge="1">
          <mxGeometry relative="1" as="geometry" />
        </mxCell>
        <mxCell id="VBjXd-iiYCMvNj0GaTi1-25" value="Verifies if token is invalidated by logout or password change" style="rounded=1;whiteSpace=wrap;html=1;" parent="1" vertex="1">
          <mxGeometry x="330" y="80" width="140" height="60" as="geometry" />
        </mxCell>
        <mxCell id="VBjXd-iiYCMvNj0GaTi1-26" style="edgeStyle=orthogonalEdgeStyle;rounded=0;orthogonalLoop=1;jettySize=auto;html=1;entryX=1;entryY=0.5;entryDx=0;entryDy=0;shape=link;" parent="1" source="VBjXd-iiYCMvNj0GaTi1-28" target="VBjXd-iiYCMvNj0GaTi1-25" edge="1">
          <mxGeometry relative="1" as="geometry" />
        </mxCell>
        <mxCell id="VBjXd-iiYCMvNj0GaTi1-27" style="edgeStyle=orthogonalEdgeStyle;rounded=0;orthogonalLoop=1;jettySize=auto;html=1;entryX=1;entryY=0.5;entryDx=0;entryDy=0;shape=link;" parent="1" source="VBjXd-iiYCMvNj0GaTi1-28" target="VBjXd-iiYCMvNj0GaTi1-32" edge="1">
          <mxGeometry relative="1" as="geometry">
            <Array as="points">
              <mxPoint x="601" y="320" />
            </Array>
          </mxGeometry>
        </mxCell>
        <mxCell id="VBjXd-iiYCMvNj0GaTi1-28" value="" style="image;sketch=0;aspect=fixed;html=1;points=[];align=center;fontSize=12;image=img/lib/mscae/Cache_Redis_Product.svg;" parent="1" vertex="1">
          <mxGeometry x="570" y="84" width="61.9" height="52" as="geometry" />
        </mxCell>
        <mxCell id="VBjXd-iiYCMvNj0GaTi1-29" value="yes" style="edgeStyle=orthogonalEdgeStyle;rounded=0;orthogonalLoop=1;jettySize=auto;html=1;entryX=0.5;entryY=0;entryDx=0;entryDy=0;" parent="1" source="VBjXd-iiYCMvNj0GaTi1-30" target="VBjXd-iiYCMvNj0GaTi1-32" edge="1">
          <mxGeometry relative="1" as="geometry" />
        </mxCell>
        <mxCell id="VBjXd-iiYCMvNj0GaTi1-30" value="valid" style="rhombus;whiteSpace=wrap;html=1;" parent="1" vertex="1">
          <mxGeometry x="370" y="180" width="60" height="60" as="geometry" />
        </mxCell>
        <mxCell id="VBjXd-iiYCMvNj0GaTi1-36" style="edgeStyle=orthogonalEdgeStyle;rounded=0;orthogonalLoop=1;jettySize=auto;html=1;exitX=0.5;exitY=1;exitDx=0;exitDy=0;entryX=0.5;entryY=0;entryDx=0;entryDy=0;" parent="1" source="VBjXd-iiYCMvNj0GaTi1-32" target="VBjXd-iiYCMvNj0GaTi1-35" edge="1">
          <mxGeometry relative="1" as="geometry" />
        </mxCell>
        <mxCell id="VBjXd-iiYCMvNj0GaTi1-32" value="Invalidate all token except this one" style="rounded=1;whiteSpace=wrap;html=1;" parent="1" vertex="1">
          <mxGeometry x="330" y="290" width="140" height="60" as="geometry" />
        </mxCell>
        <mxCell id="VBjXd-iiYCMvNj0GaTi1-33" value="no" style="edgeStyle=orthogonalEdgeStyle;rounded=0;orthogonalLoop=1;jettySize=auto;html=1;exitX=0;exitY=0.5;exitDx=0;exitDy=0;entryX=0.677;entryY=1.053;entryDx=0;entryDy=0;entryPerimeter=0;" parent="1" source="VBjXd-iiYCMvNj0GaTi1-30" target="VBjXd-iiYCMvNj0GaTi1-23" edge="1">
          <mxGeometry relative="1" as="geometry" />
        </mxCell>
        <mxCell id="VBjXd-iiYCMvNj0GaTi1-34" value="Auth&lt;br&gt;Database" style="shape=cylinder3;whiteSpace=wrap;html=1;boundedLbl=1;backgroundOutline=1;size=15;" parent="1" vertex="1">
          <mxGeometry x="710" y="390" width="60" height="80" as="geometry" />
        </mxCell>
        <mxCell id="VBjXd-iiYCMvNj0GaTi1-38" value="response" style="edgeStyle=orthogonalEdgeStyle;rounded=0;orthogonalLoop=1;jettySize=auto;html=1;entryX=0.25;entryY=1;entryDx=0;entryDy=0;" parent="1" source="VBjXd-iiYCMvNj0GaTi1-35" target="VBjXd-iiYCMvNj0GaTi1-23" edge="1">
          <mxGeometry x="-0.4118" relative="1" as="geometry">
            <mxPoint as="offset" />
          </mxGeometry>
        </mxCell>
        <mxCell id="VBjXd-iiYCMvNj0GaTi1-35" value="changes the password" style="rounded=1;whiteSpace=wrap;html=1;" parent="1" vertex="1">
          <mxGeometry x="330" y="400" width="140" height="60" as="geometry" />
        </mxCell>
        <mxCell id="VBjXd-iiYCMvNj0GaTi1-37" style="edgeStyle=orthogonalEdgeStyle;rounded=0;orthogonalLoop=1;jettySize=auto;html=1;exitX=1;exitY=0.5;exitDx=0;exitDy=0;entryX=0;entryY=0.5;entryDx=0;entryDy=0;entryPerimeter=0;shape=link;" parent="1" source="VBjXd-iiYCMvNj0GaTi1-35" target="VBjXd-iiYCMvNj0GaTi1-34" edge="1">
          <mxGeometry relative="1" as="geometry" />
        </mxCell>
      </root>
    </mxGraphModel>
  </diagram>
</mxfile>
